<?xml version="1.0" encoding="UTF-8"?>
<!--Generator: Apple Native CoreSVG 149-->
<!DOCTYPE svg
PUBLIC "-//W3C//DTD SVG 1.1//EN"
       "http://www.w3.org/Graphics/SVG/1.1/DTD/svg11.dtd">
<svg version="1.1" xmlns="http://www.w3.org/2000/svg" xmlns:xlink="http://www.w3.org/1999/xlink" width="3300" height="2200">
 <!--glyph: "uni100728.medium", point size: 100.000000, font version: "Version 16.0d18e1", template writer version: "8"-->
 <g id="Notes">
  <rect height="2200" id="artboard" style="fill:white;opacity:1" width="3300" x="0" y="0"/>
  <line id="" style="fill:none;stroke:black;opacity:1;stroke-width:0.5;" x1="263" x2="3036" y1="292" y2="292"/>
  <text style="stroke:none;fill:black;font-family:-apple-system,&quot;SF Pro Display&quot;,&quot;SF Pro Text&quot;,Helvetica,sans-serif;font-weight:bold;" transform="matrix(1 0 0 1 263 322)">Weight/Scale Variations</text>
  <text style="stroke:none;fill:black;font-family:-apple-system,&quot;SF Pro Display&quot;,&quot;SF Pro Text&quot;,Helvetica,sans-serif;text-anchor:middle;" transform="matrix(1 0 0 1 559.711 322)">Ultralight</text>
  <text style="stroke:none;fill:black;font-family:-apple-system,&quot;SF Pro Display&quot;,&quot;SF Pro Text&quot;,Helvetica,sans-serif;text-anchor:middle;" transform="matrix(1 0 0 1 856.422 322)">Thin</text>
  <text style="stroke:none;fill:black;font-family:-apple-system,&quot;SF Pro Display&quot;,&quot;SF Pro Text&quot;,Helvetica,sans-serif;text-anchor:middle;" transform="matrix(1 0 0 1 1153.13 322)">Light</text>
  <text style="stroke:none;fill:black;font-family:-apple-system,&quot;SF Pro Display&quot;,&quot;SF Pro Text&quot;,Helvetica,sans-serif;text-anchor:middle;" transform="matrix(1 0 0 1 1449.84 322)">Regular</text>
  <text style="stroke:none;fill:black;font-family:-apple-system,&quot;SF Pro Display&quot;,&quot;SF Pro Text&quot;,Helvetica,sans-serif;text-anchor:middle;" transform="matrix(1 0 0 1 1746.56 322)">Medium</text>
  <text style="stroke:none;fill:black;font-family:-apple-system,&quot;SF Pro Display&quot;,&quot;SF Pro Text&quot;,Helvetica,sans-serif;text-anchor:middle;" transform="matrix(1 0 0 1 2043.27 322)">Semibold</text>
  <text style="stroke:none;fill:black;font-family:-apple-system,&quot;SF Pro Display&quot;,&quot;SF Pro Text&quot;,Helvetica,sans-serif;text-anchor:middle;" transform="matrix(1 0 0 1 2339.98 322)">Bold</text>
  <text style="stroke:none;fill:black;font-family:-apple-system,&quot;SF Pro Display&quot;,&quot;SF Pro Text&quot;,Helvetica,sans-serif;text-anchor:middle;" transform="matrix(1 0 0 1 2636.69 322)">Heavy</text>
  <text style="stroke:none;fill:black;font-family:-apple-system,&quot;SF Pro Display&quot;,&quot;SF Pro Text&quot;,Helvetica,sans-serif;text-anchor:middle;" transform="matrix(1 0 0 1 2933.4 322)">Black</text>
  <line id="" style="fill:none;stroke:black;opacity:1;stroke-width:0.5;" x1="263" x2="3036" y1="1903" y2="1903"/>
  <g id="" transform="matrix(1 0 0 1 263 1933)">
   <path d="M9.24805 0.830078C13.5547 0.830078 17.1387-2.74414 17.1387-7.05078C17.1387-11.3574 13.5449-14.9316 9.23828-14.9316C4.94141-14.9316 1.36719-11.3574 1.36719-7.05078C1.36719-2.74414 4.95117 0.830078 9.24805 0.830078ZM9.24805-0.654297C5.70312-0.654297 2.87109-3.49609 2.87109-7.05078C2.87109-10.6055 5.69336-13.4473 9.23828-13.4473C12.793-13.4473 15.6348-10.6055 15.6445-7.05078C15.6543-3.49609 12.8027-0.654297 9.24805-0.654297ZM6.39648-6.31836L8.50586-6.31836L8.50586-4.19922C8.50586-3.75977 8.79883-3.45703 9.22852-3.45703C9.67773-3.45703 9.9707-3.75977 9.9707-4.19922L9.9707-6.31836L12.0996-6.31836C12.5391-6.31836 12.8418-6.61133 12.8418-7.04102C12.8418-7.48047 12.5391-7.7832 12.0996-7.7832L9.9707-7.7832L9.9707-9.89258C9.9707-10.3418 9.67773-10.6445 9.22852-10.6445C8.79883-10.6445 8.50586-10.3418 8.50586-9.89258L8.50586-7.7832L6.39648-7.7832C5.94727-7.7832 5.64453-7.48047 5.64453-7.04102C5.64453-6.61133 5.94727-6.31836 6.39648-6.31836Z"/>
  </g>
  <g id="" transform="matrix(1 0 0 1 281.506 1933)">
   <path d="M11.709 2.91016C17.1582 2.91016 21.6699-1.61133 21.6699-7.05078C21.6699-12.5 17.1484-17.0117 11.6992-17.0117C6.25977-17.0117 1.74805-12.5 1.74805-7.05078C1.74805-1.61133 6.26953 2.91016 11.709 2.91016ZM11.709 1.25C7.09961 1.25 3.41797-2.44141 3.41797-7.05078C3.41797-11.6602 7.08984-15.3516 11.6992-15.3516C16.3086-15.3516 20-11.6602 20.0098-7.05078C20.0195-2.44141 16.3184 1.25 11.709 1.25ZM7.98828-6.23047L10.8789-6.23047L10.8789-3.32031C10.8789-2.83203 11.2109-2.5 11.6895-2.5C12.1777-2.5 12.5195-2.83203 12.5195-3.32031L12.5195-6.23047L15.4297-6.23047C15.918-6.23047 16.25-6.5625 16.25-7.04102C16.25-7.5293 15.918-7.87109 15.4297-7.87109L12.5195-7.87109L12.5195-10.7617C12.5195-11.2695 12.1777-11.6016 11.6895-11.6016C11.2109-11.6016 10.8789-11.2598 10.8789-10.7617L10.8789-7.87109L7.98828-7.87109C7.48047-7.87109 7.14844-7.5293 7.14844-7.04102C7.14844-6.5625 7.49023-6.23047 7.98828-6.23047Z"/>
  </g>
  <g id="" transform="matrix(1 0 0 1 304.924 1933)">
   <path d="M14.9707 5.66406C21.9336 5.66406 27.6953-0.0976562 27.6953-7.05078C27.6953-14.0137 21.9238-19.7754 14.9609-19.7754C8.00781-19.7754 2.25586-14.0137 2.25586-7.05078C2.25586-0.0976562 8.01758 5.66406 14.9707 5.66406ZM14.9707 3.84766C8.93555 3.84766 4.08203-1.01562 4.08203-7.05078C4.08203-13.0957 8.92578-17.9492 14.9609-17.9492C21.0059-17.9492 25.8594-13.0957 25.8691-7.05078C25.8789-1.01562 21.0156 3.84766 14.9707 3.84766ZM10.0586-6.14258L14.0625-6.14258L14.0625-2.12891C14.0625-1.5918 14.4336-1.2207 14.9512-1.2207C15.4883-1.2207 15.8594-1.5918 15.8594-2.12891L15.8594-6.14258L19.8828-6.14258C20.4102-6.14258 20.791-6.51367 20.791-7.03125C20.791-7.56836 20.4199-7.94922 19.8828-7.94922L15.8594-7.94922L15.8594-11.9531C15.8594-12.5098 15.4883-12.8809 14.9512-12.8809C14.4336-12.8809 14.0625-12.5 14.0625-11.9531L14.0625-7.94922L10.0586-7.94922C9.50195-7.94922 9.13086-7.56836 9.13086-7.03125C9.13086-6.51367 9.51172-6.14258 10.0586-6.14258Z"/>
  </g>
  <text style="stroke:none;fill:black;font-family:-apple-system,&quot;SF Pro Display&quot;,&quot;SF Pro Text&quot;,Helvetica,sans-serif;font-weight:bold;" transform="matrix(1 0 0 1 263 1953)">Design Variations</text>
  <text style="stroke:none;fill:black;font-family:-apple-system,&quot;SF Pro Display&quot;,&quot;SF Pro Text&quot;,Helvetica,sans-serif;" transform="matrix(1 0 0 1 263 1971)">Symbols are supported in up to nine weights and three scales.</text>
  <text style="stroke:none;fill:black;font-family:-apple-system,&quot;SF Pro Display&quot;,&quot;SF Pro Text&quot;,Helvetica,sans-serif;" transform="matrix(1 0 0 1 263 1989)">For optimal layout with text and other symbols, vertically align</text>
  <text style="stroke:none;fill:black;font-family:-apple-system,&quot;SF Pro Display&quot;,&quot;SF Pro Text&quot;,Helvetica,sans-serif;" transform="matrix(1 0 0 1 263 2007)">symbols with the adjacent text.</text>
  <line id="" style="fill:none;stroke:#00AEEF;stroke-width:0.5;opacity:1.0;" x1="776" x2="776" y1="1919" y2="1933"/>
  <g id="" transform="matrix(1 0 0 1 776 1933)">
   <path d="M3.31055 0.126953C3.82812 0.126953 4.08203-0.0683594 4.26758-0.605469L5.52734-4.0625L11.2891-4.0625L12.5488-0.605469C12.7344-0.0683594 12.9883 0.126953 13.4961 0.126953C14.0137 0.126953 14.3457-0.185547 14.3457-0.673828C14.3457-0.839844 14.3164-0.986328 14.2383-1.20117L9.6582-13.3887C9.43359-13.9941 9.0332-14.2871 8.4082-14.2871C7.80273-14.2871 7.39258-13.9941 7.17773-13.3984L2.59766-1.19141C2.51953-0.976562 2.49023-0.830078 2.49023-0.664062C2.49023-0.175781 2.80273 0.126953 3.31055 0.126953ZM6.00586-5.53711L8.37891-12.1094L8.42773-12.1094L10.8008-5.53711Z"/>
  </g>
  <line id="" style="fill:none;stroke:#00AEEF;stroke-width:0.5;opacity:1.0;" x1="792.836" x2="792.836" y1="1919" y2="1933"/>
  <text style="stroke:none;fill:black;font-family:-apple-system,&quot;SF Pro Display&quot;,&quot;SF Pro Text&quot;,Helvetica,sans-serif;font-weight:bold;" transform="matrix(1 0 0 1 776 1953)">Margins</text>
  <text style="stroke:none;fill:black;font-family:-apple-system,&quot;SF Pro Display&quot;,&quot;SF Pro Text&quot;,Helvetica,sans-serif;" transform="matrix(1 0 0 1 776 1971)">Leading and trailing margins on the left and right side of each symbol</text>
  <text style="stroke:none;fill:black;font-family:-apple-system,&quot;SF Pro Display&quot;,&quot;SF Pro Text&quot;,Helvetica,sans-serif;" transform="matrix(1 0 0 1 776 1989)">can be adjusted by modifying the x-location of the margin guidelines.</text>
  <text style="stroke:none;fill:black;font-family:-apple-system,&quot;SF Pro Display&quot;,&quot;SF Pro Text&quot;,Helvetica,sans-serif;" transform="matrix(1 0 0 1 776 2007)">Modifications are automatically applied proportionally to all</text>
  <text style="stroke:none;fill:black;font-family:-apple-system,&quot;SF Pro Display&quot;,&quot;SF Pro Text&quot;,Helvetica,sans-serif;" transform="matrix(1 0 0 1 776 2025)">scales and weights.</text>
  <g id="" transform="matrix(1 0 0 1 1289 1933)">
   <path d="M2.8418 1.86523L4.54102 3.57422C5.40039 4.44336 6.38672 4.38477 7.31445 3.35938L17.4902-7.85156C17.7539-7.76367 18.0273-7.7832 18.3398-7.8418L19.4043-8.03711L20.0684-7.36328L20.0293-6.80664C19.9902-6.30859 20.1172-5.92773 20.6055-5.44922L21.3672-4.70703C21.8457-4.22852 22.4609-4.19922 22.9297-4.66797L25.8398-7.58789C26.3086-8.05664 26.2891-8.65234 25.8105-9.13086L25.0391-9.89258C24.5605-10.3711 24.1895-10.5273 23.7109-10.4883L23.1348-10.4395L22.4902-11.0742L22.7344-12.1973C22.8613-12.7637 22.7051-13.2031 22.1191-13.7891L19.9219-15.9766C16.582-19.2969 12.1484-19.2188 9.25781-16.3281C8.83789-15.918 8.80859-15.3418 9.04297-14.9512C9.27734-14.5898 9.73633-14.3555 10.3809-14.5215C11.8457-14.8633 13.3691-14.9219 14.7949-13.9844L14.209-12.5293C14.0137-12.0508 13.9844-11.6504 14.1113-11.2891L3.04688-0.898438C2.06055 0.0195312 1.98242 0.996094 2.8418 1.86523ZM10.752-15.957C13.1836-17.7344 16.4746-17.4316 18.7012-15.2051L21.1328-12.793C21.3672-12.5586 21.4062-12.373 21.3379-12.0312L21.0156-10.5469L22.5195-9.0625L23.5059-9.12109C23.7598-9.13086 23.8379-9.11133 24.0332-8.91602L24.6094-8.33984L22.168-5.89844L21.5918-6.47461C21.3965-6.66992 21.3672-6.74805 21.377-7.01172L21.4453-7.98828L19.9512-9.47266L18.4277-9.21875C18.1055-9.15039 17.959-9.17969 17.7148-9.41406L15.7129-11.416C15.459-11.6504 15.4297-11.8164 15.5859-12.1875L16.4648-14.2773C14.9023-15.7324 12.8711-16.3574 10.8398-15.7617C10.6836-15.7227 10.625-15.8496 10.752-15.957ZM5.27344 2.30469L4.10156 1.14258C3.63281 0.683594 3.74023 0.341797 4.14062-0.0195312L14.9512-10.1953L16.416-8.71094L6.42578 2.27539C6.07422 2.67578 5.74219 2.77344 5.27344 2.30469Z"/>
  </g>
  <text style="stroke:none;fill:black;font-family:-apple-system,&quot;SF Pro Display&quot;,&quot;SF Pro Text&quot;,Helvetica,sans-serif;font-weight:bold;" transform="matrix(1 0 0 1 1289 1953)">Exporting</text>
  <text style="stroke:none;fill:black;font-family:-apple-system,&quot;SF Pro Display&quot;,&quot;SF Pro Text&quot;,Helvetica,sans-serif;" transform="matrix(1 0 0 1 1289 1971)">Symbols should be outlined when exporting to ensure the</text>
  <text style="stroke:none;fill:black;font-family:-apple-system,&quot;SF Pro Display&quot;,&quot;SF Pro Text&quot;,Helvetica,sans-serif;" transform="matrix(1 0 0 1 1289 1989)">design is preserved when submitting to Xcode.</text>
  <text id="template-version" style="stroke:none;fill:black;font-family:-apple-system,&quot;SF Pro Display&quot;,&quot;SF Pro Text&quot;,Helvetica,sans-serif;text-anchor:end;" transform="matrix(1 0 0 1 3036 1933)">Template v.2.0</text>
  <text style="stroke:none;fill:black;font-family:-apple-system,&quot;SF Pro Display&quot;,&quot;SF Pro Text&quot;,Helvetica,sans-serif;text-anchor:end;" transform="matrix(1 0 0 1 3036 1951)">Requires Xcode 12 or greater</text>
  <text style="stroke:none;fill:black;font-family:-apple-system,&quot;SF Pro Display&quot;,&quot;SF Pro Text&quot;,Helvetica,sans-serif;text-anchor:end;" transform="matrix(1 0 0 1 3036 1969)">Generated from trash.slash.fill</text>
  <text style="stroke:none;fill:black;font-family:-apple-system,&quot;SF Pro Display&quot;,&quot;SF Pro Text&quot;,Helvetica,sans-serif;text-anchor:end;" transform="matrix(1 0 0 1 3036 1987)">Typeset at 100 points</text>
  <text style="stroke:none;fill:black;font-family:-apple-system,&quot;SF Pro Display&quot;,&quot;SF Pro Text&quot;,Helvetica,sans-serif;" transform="matrix(1 0 0 1 263 726)">Small</text>
  <text style="stroke:none;fill:black;font-family:-apple-system,&quot;SF Pro Display&quot;,&quot;SF Pro Text&quot;,Helvetica,sans-serif;" transform="matrix(1 0 0 1 263 1156)">Medium</text>
  <text style="stroke:none;fill:black;font-family:-apple-system,&quot;SF Pro Display&quot;,&quot;SF Pro Text&quot;,Helvetica,sans-serif;" transform="matrix(1 0 0 1 263 1586)">Large</text>
 </g>
 <g id="Guides">
  <g id="H-reference" style="fill:#27AAE1;stroke:none;" transform="matrix(1 0 0 1 339 696)">
   <path d="M0.976562 0L3.66211 0L12.9883-24.4629L45.752-24.4629L55.127 0L57.7637 0L30.6152-70.459L28.125-70.459ZM29.3457-67.1387L29.4434-67.1387L44.873-26.709L13.8672-26.709Z"/>
  </g>
  <line id="Baseline-S" style="fill:none;stroke:#27AAE1;opacity:1;stroke-width:0.5;" x1="263" x2="3036" y1="696" y2="696"/>
  <line id="Capline-S" style="fill:none;stroke:#27AAE1;opacity:1;stroke-width:0.5;" x1="263" x2="3036" y1="625.541" y2="625.541"/>
  <g id="H-reference" style="fill:#27AAE1;stroke:none;" transform="matrix(1 0 0 1 339 1126)">
   <path d="M0.976562 0L3.66211 0L12.9883-24.4629L45.752-24.4629L55.127 0L57.7637 0L30.6152-70.459L28.125-70.459ZM29.3457-67.1387L29.4434-67.1387L44.873-26.709L13.8672-26.709Z"/>
  </g>
  <line id="Baseline-M" style="fill:none;stroke:#27AAE1;opacity:1;stroke-width:0.5;" x1="263" x2="3036" y1="1126" y2="1126"/>
  <line id="Capline-M" style="fill:none;stroke:#27AAE1;opacity:1;stroke-width:0.5;" x1="263" x2="3036" y1="1055.54" y2="1055.54"/>
  <g id="H-reference" style="fill:#27AAE1;stroke:none;" transform="matrix(1 0 0 1 339 1556)">
   <path d="M0.976562 0L3.66211 0L12.9883-24.4629L45.752-24.4629L55.127 0L57.7637 0L30.6152-70.459L28.125-70.459ZM29.3457-67.1387L29.4434-67.1387L44.873-26.709L13.8672-26.709Z"/>
  </g>
  <line id="Baseline-L" style="fill:none;stroke:#27AAE1;opacity:1;stroke-width:0.5;" x1="263" x2="3036" y1="1556" y2="1556"/>
  <line id="Capline-L" style="fill:none;stroke:#27AAE1;opacity:1;stroke-width:0.5;" x1="263" x2="3036" y1="1485.54" y2="1485.54"/>
  <line id="left-margin" style="fill:none;stroke:#00AEEF;stroke-width:0.5;opacity:1.0;" x1="1395.08" x2="1395.08" y1="1030.79" y2="1150.12"/>
  <line id="right-margin" style="fill:none;stroke:#00AEEF;stroke-width:0.5;opacity:1.0;" x1="1504.61" x2="1504.61" y1="1030.79" y2="1150.12"/>
 </g>
 <g id="Symbols">
  <g id="Black-L" transform="matrix(1 0 0 1 2857.74 1556)">
   <path d="M124.023-12.3535L126.709-73.1445L133.057-73.1445C138.037-73.1445 141.699-76.6113 141.699-81.5918C141.699-86.4746 138.037-89.8926 133.057-89.8926L108.545-89.8926L108.545-95.6543C108.545-107.959 99.5117-115.967 85.8398-115.967L65.4785-115.967C51.8066-115.967 42.7734-107.959 42.7734-95.6543L42.7734-93.5547L72.168-64.209C72.998-65.0391 74.2676-65.4785 75.6836-65.4785C79.1504-65.4785 81.4941-63.2324 81.4941-59.8633L81.4941-54.8828L92.2363-44.1406L92.6758-59.8145C92.7734-63.1836 95.166-65.4785 98.6816-65.4785C102.197-65.4785 104.395-63.1836 104.297-59.7168L103.516-32.8125ZM131.836 24.8535C134.082 27.0996 137.793 27.0996 139.99 24.8535C142.139 22.6074 142.236 18.9941 139.99 16.748L19.4336-103.857C17.1875-106.104 13.4766-106.104 11.2305-103.857C9.08203-101.709 9.08203-97.9004 11.2305-95.752ZM62.0605-89.8926L62.0605-95.2148C62.0605-97.7539 63.916-99.4141 66.8457-99.4141L84.5215-99.4141C87.4512-99.4141 89.3066-97.7539 89.3066-95.2148L89.3066-89.8926ZM46.0938 30.6641L105.322 30.6641C111.768 30.6641 116.357 28.8574 119.238 25.293L99.7559 5.81055L99.7559 6.00586C99.1699 6.88477 98.0469 7.4707 96.6797 7.4707C93.0664 7.4707 90.7715 5.12695 90.8691 1.66016L91.0156-2.97852L81.4941-12.5L81.4941 1.85547C81.4941 5.22461 79.1504 7.4707 75.6836 7.4707C72.2168 7.4707 69.873 5.22461 69.873 1.85547L69.873-24.0234L59.4238-34.5215L60.498 1.66016C60.5469 5.12695 58.3008 7.4707 54.6875 7.4707C51.3184 7.4707 48.9258 5.17578 48.877 1.80664L47.4609-46.5332L24.9023-68.9941L28.5156 14.4531C28.9551 25.293 34.8145 30.6641 46.0938 30.6641Z"/>
  </g>
  <g id="Heavy-L" transform="matrix(1 0 0 1 2562.32 1556)">
   <path d="M121.582-12.4023L124.365-74.3164L131.543-74.3164C135.889-74.3164 139.111-77.3926 139.111-81.7383C139.111-85.9863 135.889-89.0625 131.543-89.0625L106.006-89.0625L106.006-95.752C106.006-107.275 97.6074-114.795 84.9609-114.795L63.7695-114.795C51.0742-114.795 42.6758-107.275 42.6758-95.752L42.6758-92.1387L41.7969-92.1387L70.8984-63.0371L70.8984-64.3555C71.6797-65.332 72.9004-65.8203 74.3652-65.8203C77.4902-65.8203 79.6387-63.8184 79.6387-60.7422L79.6387-54.2969L91.1621-42.7734L91.6992-60.7422C91.7969-63.7695 93.9453-65.8203 97.1191-65.8203C100.293-65.8203 102.295-63.7695 102.197-60.6445L101.416-32.5684ZM129.883 23.5352C131.982 25.6348 135.449 25.6348 137.5 23.5352C139.551 21.4355 139.6 18.0664 137.5 15.9668L18.7988-102.783C16.6992-104.883 13.2324-104.883 11.1328-102.783C9.13086-100.781 9.13086-97.2168 11.1328-95.2148ZM59.7168-89.0625L59.7168-95.2637C59.7168-98.0957 61.7676-99.9512 64.9414-99.9512L83.7891-99.9512C86.9629-99.9512 89.0137-98.0469 89.0137-95.2637L89.0137-89.0625ZM44.7754 29.8828L104.004 29.8828C110.303 29.8828 114.893 27.7832 117.432 23.9258L117.432 23.4375L98.291 4.24805L98.2422 6.00586C97.8027 7.17773 96.6309 7.91016 95.0684 7.91016C91.7969 7.91016 89.7949 5.81055 89.8438 2.73438L90.0391-4.00391L79.6387-14.4043L79.6387 2.83203C79.6387 5.9082 77.4902 7.91016 74.3652 7.91016C71.2402 7.91016 69.1406 5.9082 69.1406 2.83203L69.1406-24.8535L57.7637-36.2793L58.8867 2.73438C58.9844 5.81055 56.9336 7.91016 53.6621 7.91016C50.6348 7.91016 48.4863 5.85938 48.4375 2.83203L46.9727-47.0703L24.707-69.2383L28.3691 14.6484C28.8086 24.707 34.4238 29.8828 44.7754 29.8828Z"/>
  </g>
  <g id="Bold-L" transform="matrix(1 0 0 1 2267.05 1556)">
   <path d="M118.848-12.4512L121.68-75.6348L129.883-75.6348C133.496-75.6348 136.23-78.2715 136.23-81.8848C136.23-85.4492 133.447-88.0859 129.883-88.0859L103.174-88.0859L103.174-95.8008C103.174-106.494 95.5078-113.428 83.9355-113.428L61.8164-113.428C50.2441-113.428 42.5781-106.494 42.5781-95.8008L42.5781-90.5762L40.6738-90.5762L69.5312-61.7188L69.5312-64.5508C70.166-65.625 71.4355-66.2109 72.9492-66.2109C75.6836-66.2109 77.5879-64.4531 77.5879-61.7676L77.5879-53.6621L89.9902-41.2109L90.625-61.7676C90.6738-64.4531 92.5781-66.2109 95.3125-66.2109C98.0957-66.2109 99.9023-64.4043 99.8535-61.7188L98.9746-32.2754ZM127.686 22.0703C129.639 24.0234 132.812 24.0234 134.717 22.0703C136.621 20.1172 136.67 17.041 134.717 15.0879L18.1152-101.611C16.1621-103.516 12.9883-103.564 11.0352-101.611C9.13086-99.707 9.13086-96.4844 11.0352-94.5801ZM57.1289-88.0859L57.1289-95.3613C57.1289-98.4375 59.375-100.537 62.8418-100.537L82.959-100.537C86.377-100.537 88.6719-98.4375 88.6719-95.3613L88.6719-88.0859ZM43.3594 29.0039L102.49 29.0039C108.691 29.0039 113.232 26.5137 115.381 22.3633L115.43 21.3379L96.6309 2.53906L96.5332 6.05469C96.2402 7.51953 94.9707 8.44727 93.3105 8.44727C90.4297 8.44727 88.623 6.5918 88.7207 3.90625L88.9648-5.12695L77.5879-16.5039L77.5879 3.95508C77.5879 6.64062 75.6836 8.39844 72.9492 8.39844C70.166 8.39844 68.2617 6.64062 68.2617 3.95508L68.2617-25.7812L55.9082-38.1836L57.1289 3.90625C57.2266 6.54297 55.4199 8.39844 52.5391 8.39844C49.8535 8.39844 47.998 6.64062 47.9492 3.95508L46.4355-47.6562L24.4629-69.5312L28.2715 14.8926C28.6133 24.0723 33.9844 29.0039 43.3594 29.0039Z"/>
  </g>
  <g id="Semibold-L" transform="matrix(1 0 0 1 1971.37 1556)">
   <path d="M116.943-12.4512L119.873-76.5137L128.711-76.5137C131.836-76.5137 134.18-78.9062 134.18-81.9824C134.18-85.0586 131.787-87.4023 128.711-87.4023L101.221-87.4023L101.221-95.8496C101.221-105.908 94.0918-112.5 83.2031-112.5L60.498-112.5C49.6582-112.5 42.5293-105.957 42.5293-95.8496L42.5293-89.4531L39.8926-89.4531L68.6035-60.791L68.6035-64.6484C69.1406-65.8203 70.4102-66.5039 71.9238-66.5039C74.4629-66.5039 76.1719-64.8926 76.1719-62.5L76.1719-53.2227L89.209-40.1855L89.8438-62.5C89.9414-64.8926 91.6504-66.4551 94.0918-66.4551C96.6309-66.4551 98.2422-64.8438 98.1934-62.4023L97.3145-32.0312ZM126.172 21.0938C128.027 22.9004 131.006 22.9004 132.812 21.0938C134.57 19.2383 134.619 16.3086 132.812 14.502L17.627-100.781C15.8203-102.588 12.793-102.637 10.9375-100.781C9.17969-98.9746 9.17969-95.9473 10.9375-94.1406ZM55.3711-87.4023L55.3711-95.4102C55.3711-98.6816 57.7637-100.928 61.377-100.928L82.4219-100.928C86.0352-100.928 88.4277-98.6816 88.4277-95.4102L88.4277-87.4023ZM42.3828 28.418L101.514 28.418C107.568 28.418 112.109 25.6836 113.965 21.2891L114.014 19.873L95.5078 1.36719L95.3613 6.10352C95.166 7.71484 93.8965 8.78906 92.0898 8.78906C89.502 8.78906 87.8418 7.08008 87.8906 4.6875L88.2324-5.9082L76.1719-17.9688L76.1719 4.73633C76.1719 7.12891 74.4629 8.74023 71.9238 8.74023C69.4336 8.74023 67.6758 7.12891 67.6758 4.73633L67.6758-26.416L54.6387-39.502L55.9082 4.6875C56.0059 7.08008 54.3457 8.74023 51.7578 8.74023C49.3164 8.74023 47.6562 7.17773 47.6074 4.73633L46.0449-48.0957L24.3164-69.7754L28.1738 15.0879C28.5156 23.6328 33.6914 28.418 42.3828 28.418Z"/>
  </g>
  <g id="Medium-L" transform="matrix(1 0 0 1 1675.41 1556)">
   <path d="M115.527-12.5L118.506-77.1973L127.832-77.1973C130.566-77.1973 132.666-79.3457 132.666-82.0801C132.666-84.8145 130.518-86.9141 127.832-86.9141L99.7559-86.9141L99.7559-95.8984C99.7559-105.518 92.9688-111.816 82.666-111.816L59.5215-111.816C49.2188-111.816 42.4805-105.566 42.4805-95.8984L42.4805-88.623L39.3555-88.623L67.8711-60.1074L67.8711-64.7461C68.3594-65.9668 69.6289-66.6992 71.1914-66.6992C73.4863-66.6992 75.0977-65.1855 75.0977-62.9883L75.0977-52.8809L88.623-39.3555L89.3066-63.0371C89.3555-65.2344 90.918-66.6504 93.1641-66.6504C95.5078-66.6504 97.0215-65.1855 96.9727-62.9883L96.0938-31.8848ZM125.049 20.3125C126.807 22.0703 129.639 22.0703 131.348 20.3125C133.057 18.5547 133.057 15.7715 131.348 14.0137L17.2363-100.146C15.5273-101.855 12.6465-101.904 10.8887-100.146C9.17969-98.4375 9.17969-95.5566 10.8887-93.8477ZM54.0039-86.9141L54.0039-95.4102C54.0039-98.877 56.4941-101.27 60.2539-101.27L81.9824-101.27C85.7422-101.27 88.2812-98.8281 88.2812-95.4102L88.2812-86.9141ZM41.6504 27.9785L100.732 27.9785C106.738 27.9785 111.23 25.0488 112.842 20.5078L112.988 18.7988L94.6777 0.488281L94.4824 6.10352C94.3848 7.86133 93.0176 9.0332 91.1621 9.0332C88.7695 9.0332 87.2559 7.51953 87.3047 5.32227L87.6465-6.54297L75.0977-19.0918L75.0977 5.32227C75.0977 7.51953 73.4863 9.0332 71.1914 9.0332C68.8477 9.0332 67.2363 7.51953 67.2363 5.32227L67.2363-26.9043L53.6621-40.5273L55.0293 5.32227C55.0781 7.4707 53.5645 9.0332 51.1719 9.0332C48.9258 9.0332 47.3633 7.56836 47.3145 5.32227L45.752-48.3887L24.2188-69.9219L28.0762 15.2344C28.418 23.291 33.4473 27.9785 41.6504 27.9785Z"/>
  </g>
  <g id="Regular-L" transform="matrix(1 0 0 1 1379.68 1556)">
   <path d="M113.623-12.5488L116.699-78.125L126.66-78.125C128.906-78.125 130.713-79.9805 130.713-82.1777C130.713-84.4238 128.906-86.2793 126.66-86.2793L97.8516-86.2793L97.8516-95.9473C97.8516-104.98 91.5527-110.889 81.9824-110.889L58.2031-110.889C48.6816-110.889 42.3828-105.029 42.3828-95.9473L42.3828-87.5488L38.5742-87.5488L66.9434-59.1797L66.9434-64.8438C67.3828-66.1621 68.6035-66.9434 70.166-66.9434C72.2656-66.9434 73.6816-65.625 73.6816-63.7207L73.6816-52.4414L87.793-38.2812L88.5254-63.7207C88.5742-65.6738 89.9902-66.9434 91.9434-66.9434C93.9941-66.9434 95.4102-65.625 95.3613-63.6719L94.4336-31.6895ZM52.2461-86.2793L52.2461-95.459C52.2461-99.1211 54.8828-101.66 58.7891-101.66L81.4453-101.66C85.3516-101.66 88.0371-99.0723 88.0371-95.459L88.0371-86.2793ZM123.535 19.3359C125.195 20.9473 127.881 20.9473 129.443 19.3359C131.055 17.6758 131.055 15.0391 129.443 13.4277L16.748-99.3164C15.1367-100.928 12.4512-100.977 10.791-99.3164C9.22852-97.7539 9.22852-95.0195 10.791-93.4082ZM40.6738 27.3438L99.707 27.3438C105.615 27.3438 110.107 24.2188 111.475 19.4336L111.572 17.3828L93.5547-0.683594L93.3594 6.15234C93.3594 8.10547 91.9434 9.375 89.9414 9.375C87.8418 9.375 86.4746 8.00781 86.5234 6.10352L86.9141-7.32422L73.6816-20.5566L73.6816 6.10352C73.6816 8.00781 72.2656 9.375 70.166 9.375C68.1152 9.375 66.6504 8.00781 66.6504 6.10352L66.6504-27.5391L52.3926-41.8457L53.8086 6.10352C53.8574 8.00781 52.4902 9.375 50.3906 9.375C48.3887 9.375 47.0215 8.05664 46.9727 6.10352L45.4102-48.8281L24.0723-70.1172L28.0273 15.3809C28.3203 22.8516 33.1543 27.3438 40.6738 27.3438Z"/>
  </g>
  <g id="Light-L" transform="matrix(1 0 0 1 1083.63 1556)">
   <path d="M112.207-10.6934L115.576-79.3945L126.27-79.3945C128.076-79.3945 129.395-80.8105 129.395-82.5195C129.395-84.2773 128.027-85.6934 126.27-85.6934L96.4844-85.6934L96.4844-95.752C96.4844-104.102 90.3809-109.814 81.4941-109.814L57.4707-109.814C48.5352-109.814 42.4805-104.15 42.4805-95.752L42.4805-86.4746L36.4258-86.4746L66.9434-55.957L66.9434-64.9902C67.2363-66.1133 68.2129-66.8457 69.5312-66.8457C71.1914-66.8457 72.3145-65.7715 72.3145-64.2578L72.3145-50.5859L87.5977-35.2539L88.4766-64.3066C88.5254-65.8203 89.6973-66.7969 91.2109-66.7969C92.8223-66.7969 93.9453-65.7715 93.8965-64.209L92.8711-30.0293ZM50.0977-85.6934L50.0977-95.459C50.0977-99.707 53.2227-102.637 57.8125-102.637L81.1523-102.637C85.7422-102.637 88.916-99.6582 88.916-95.459L88.916-85.6934ZM123.877 19.3359C125.146 20.6055 127.197 20.6055 128.418 19.3359C129.688 18.0664 129.688 16.0645 128.418 14.7949L15.1367-98.5352C13.916-99.7559 11.8652-99.8535 10.5469-98.5352C9.32617-97.3145 9.32617-95.2148 10.5469-93.9453ZM40.625 27.7832L98.4863 27.7832C104.541 27.7832 109.375 23.877 110.352 18.6035L110.547 15.2832L92.0898-3.22266L91.748 7.27539C91.748 8.78906 90.6738 9.81445 89.0137 9.81445C87.3535 9.81445 86.3281 8.69141 86.3281 7.22656L86.8164-8.49609L72.3145-22.998L72.3145 7.17773C72.3145 8.69141 71.1914 9.76562 69.5312 9.76562C67.9199 9.76562 66.7969 8.69141 66.7969 7.17773L66.7969-28.5156L51.123-44.1406L52.6855 7.17773C52.7344 8.64258 51.6602 9.76562 50 9.76562C48.3887 9.76562 47.3145 8.74023 47.3145 7.22656L45.6055-49.707L23.877-71.3867L28.1738 16.0645C28.4668 23.0469 33.5449 27.7832 40.625 27.7832Z"/>
  </g>
  <g id="Thin-L" transform="matrix(1 0 0 1 787.745 1556)">
   <path d="M110.303-8.30078L114.16-81.0547L125.781-81.0547C126.953-81.0547 127.734-81.9336 127.734-83.0078C127.734-84.1309 126.855-84.9121 125.781-84.9121L94.6777-84.9121L94.6777-95.5078C94.6777-102.979 88.916-108.35 80.8105-108.35L56.4453-108.35C48.3398-108.35 42.627-103.027 42.627-95.5078L42.627-85.1074L33.5449-85.1074L66.9434-51.6602L66.9434-65.1367C66.9922-66.0645 67.7246-66.748 68.7012-66.748C69.7266-66.748 70.5078-66.0156 70.5078-64.9902L70.5078-48.1445L87.3535-31.25L88.4277-65.0879C88.4277-66.0156 89.2578-66.6504 90.2344-66.6504C91.2598-66.6504 91.9922-66.0156 91.9922-64.9414L90.8203-27.832ZM47.2656-84.9121L47.2656-95.4102C47.2656-100.439 51.0742-103.906 56.543-103.906L80.7129-103.906C86.2305-103.906 90.0391-100.391 90.0391-95.4102L90.0391-84.9121ZM124.268 19.3848C125.049 20.166 126.318 20.166 127.051 19.3848C127.93 18.5547 127.832 17.3828 127.051 16.6016L12.9883-97.4609C12.3047-98.1934 11.0352-98.3398 10.2051-97.4609C9.42383-96.7285 9.42383-95.459 10.2051-94.6777ZM40.5273 28.3691L96.8262 28.3691C103.125 28.3691 108.447 23.4863 108.936 17.4805L109.229 12.5L90.1367-6.54297L89.6484 8.74023C89.6484 9.66797 88.9648 10.4004 87.8418 10.4004C86.7676 10.4004 86.084 9.61914 86.084 8.64258L86.7188-10.0098L70.5078-26.2207L70.5078 8.59375C70.5078 9.61914 69.7266 10.3516 68.7012 10.3516C67.6758 10.3516 66.9434 9.61914 66.9434 8.59375L66.9434-29.7852L49.4629-47.2168L51.2695 8.59375C51.2695 9.52148 50.5859 10.3516 49.4629 10.3516C48.3887 10.3516 47.7051 9.61914 47.7051 8.64258L45.8496-50.8789L23.6816-73.0469L28.3691 16.9434C28.7109 23.291 34.0332 28.3691 40.5273 28.3691Z"/>
  </g>
  <g id="Ultralight-L" transform="matrix(1 0 0 1 491.474 1556)">
   <path d="M109.375-7.08008L113.428-81.9336L125.537-81.9336C126.367-81.9336 126.855-82.5195 126.855-83.252C126.855-84.0332 126.27-84.5215 125.537-84.5215L93.7988-84.5215L93.7988-95.3613C93.7988-102.393 88.1348-107.617 80.4688-107.617L55.957-107.617C48.2422-107.617 42.7246-102.441 42.7246-95.3613L42.7246-84.375L32.0801-84.375L66.9434-49.5117L66.9434-65.2344C66.8945-66.0645 67.4805-66.6992 68.2617-66.6992C69.043-66.6992 69.5801-66.1133 69.5801-65.3809L69.5801-46.875L87.2559-29.1992L88.4277-65.4297C88.4277-66.1133 89.0625-66.6016 89.6973-66.6016C90.4785-66.6016 91.0156-66.1133 91.0156-65.2832L89.7949-26.6602ZM45.8496-84.5215L45.8496-95.4102C45.8496-100.83 49.9512-104.59 55.8594-104.59L80.5176-104.59C86.4746-104.59 90.625-100.732 90.625-95.4102L90.625-84.5215ZM124.463 19.4336C125 19.9707 125.83 19.9707 126.367 19.4336C127.002 18.7988 126.904 18.0664 126.367 17.5293L11.9141-96.9238C11.4746-97.3633 10.6445-97.5586 10.0098-96.9238C9.47266-96.3867 9.47266-95.5566 10.0098-95.0195ZM40.4785 28.6621L95.9961 28.6621C102.393 28.6621 107.959 23.2422 108.154 16.8945L108.545 11.084L89.1602-8.25195L88.5742 9.47266C88.5742 10.1562 88.0859 10.6934 87.2559 10.6934C86.4258 10.6934 85.9863 10.0586 85.9375 9.375L86.6211-10.791L69.5801-27.8809L69.5801 9.32617C69.5801 10.0586 69.043 10.6445 68.2617 10.6445C67.5293 10.6445 66.9922 10.0586 66.9922 9.32617L66.9922-30.4199L48.6328-48.8281L50.5371 9.32617C50.4883 9.96094 50.0488 10.6445 49.2188 10.6445C48.3887 10.6445 47.9004 10.0586 47.9004 9.375L45.9473-51.4648L23.5352-73.877L28.4668 17.3828C28.8086 23.4375 34.2773 28.6621 40.4785 28.6621Z"/>
  </g>
  <g id="Black-M" transform="matrix(1 0 0 1 2873.32 1126)">
   <path d="M98.6816-16.5039L100.83-63.7207L104.98-63.7207C109.473-63.7207 112.695-66.6992 112.695-71.1426C112.695-75.4883 109.473-78.4668 104.98-78.4668L86.8164-78.4668L86.8164-81.8848C86.8164-92.0898 79.0527-98.877 67.5293-98.877L52.6367-98.877C41.1133-98.877 33.3496-92.0898 33.3496-81.8848L33.3496-81.7871L57.6172-57.5684C58.3008-57.959 59.1797-58.1543 60.0586-58.1543C62.9395-58.1543 64.8926-56.25 64.8926-53.3691L64.8926-50.2441L72.8027-42.3828L73.1445-53.3203C73.2422-56.2012 75.2441-58.1543 78.2227-58.1543C81.2012-58.1543 83.0078-56.2012 82.959-53.2715L82.3242-32.8613ZM104.98 13.1348C106.738 14.8926 109.619 14.8926 111.279 13.1348C112.988 11.377 113.037 8.59375 111.279 6.83594L15.0879-89.4531C13.3301-91.2109 10.498-91.2109 8.74023-89.4531C7.03125-87.7441 7.03125-84.8145 8.74023-83.1543ZM50.0977-78.4668L50.0977-81.6406C50.0977-83.5449 51.5137-84.8145 53.8574-84.8145L66.3086-84.8145C68.6523-84.8145 70.0684-83.5449 70.0684-81.6406L70.0684-78.4668ZM37.4023 17.1387L82.7637 17.1387C87.9883 17.1387 91.7969 15.7715 94.3359 13.0859L78.5156-2.73438C77.8809-2.58789 77.2461-2.49023 76.6113-2.49023C73.5352-2.49023 71.6797-4.54102 71.7285-7.4707L71.7773-9.47266L64.8926-16.3574L64.8926-7.27539C64.8926-4.39453 62.9395-2.49023 60.0586-2.49023C57.1777-2.49023 55.2734-4.39453 55.2734-7.27539L55.2734-25.9277L47.6074-33.5938L48.4375-7.4707C48.4863-4.54102 46.6309-2.49023 43.5547-2.49023C40.7227-2.49023 38.7207-4.44336 38.6719-7.32422L37.5488-43.7012L19.4824-61.7188L22.3633 3.32031C22.7051 12.5488 27.7344 17.1387 37.4023 17.1387Z"/>
  </g>
  <g id="Heavy-M" transform="matrix(1 0 0 1 2577.88 1126)">
   <path d="M96.3867-16.9922L98.5352-64.6973L103.418-64.6973C107.324-64.6973 110.156-67.334 110.156-71.2402C110.156-75 107.324-77.6855 103.418-77.6855L84.375-77.6855L84.375-81.9824C84.375-91.5527 77.2949-97.8027 66.6504-97.8027L50.9766-97.8027C40.332-97.8027 33.252-91.5527 33.252-81.9824L33.252-80.5176L32.8613-80.5176L56.25-57.1289L56.25-57.666C56.8848-58.252 57.8125-58.5449 58.8379-58.5449C61.4746-58.5449 63.2324-56.8359 63.2324-54.248L63.2324-50.0977L71.6797-41.6504L72.1191-54.1992C72.168-56.7871 73.9746-58.5449 76.709-58.5449C79.3945-58.5449 81.0547-56.7871 81.0059-54.1504L80.3711-33.0078ZM102.783 11.6699C104.443 13.3789 107.227 13.3789 108.838 11.6699C110.449 10.0098 110.547 7.32422 108.838 5.61523L14.7949-88.4766C13.1348-90.1367 10.3516-90.1367 8.69141-88.4766C7.08008-86.8652 7.08008-84.0332 8.69141-82.4219ZM48.0957-77.6855L48.0957-81.6895C48.0957-83.7402 49.6094-85.1074 52.002-85.1074L65.625-85.1074C68.0176-85.1074 69.5312-83.7402 69.5312-81.6895L69.5312-77.6855ZM36.0352 16.1621L81.6406 16.1621C86.7188 16.1621 90.3809 14.6484 92.627 11.8164L92.627 11.5723L77.2949-3.75977L77.2461-2.97852C76.7578-2.49023 76.0254-2.14844 75.0977-2.14844C72.3145-2.14844 70.6055-3.95508 70.6543-6.5918L70.752-10.2539L63.2324-17.7734L63.2324-6.44531C63.2324-3.85742 61.4746-2.14844 58.8379-2.14844C56.2012-2.14844 54.3945-3.85742 54.3945-6.44531L54.3945-26.6113L46.1426-34.9121L46.9727-6.5918C47.0703-3.95508 45.3125-2.14844 42.5293-2.14844C39.9414-2.14844 38.1348-3.90625 38.0859-6.49414L36.9629-44.0918L19.2871-61.6699L22.168 3.36914C22.5098 11.8652 27.1973 16.1621 36.0352 16.1621Z"/>
  </g>
  <g id="Bold-M" transform="matrix(1 0 0 1 2282.56 1126)">
   <path d="M93.7988-17.5781L95.9473-65.7227L101.709-65.7227C104.932-65.7227 107.373-68.0664 107.373-71.2891C107.373-74.4629 104.932-76.7578 101.709-76.7578L81.6895-76.7578L81.6895-82.1289C81.6895-90.918 75.3418-96.6797 65.6738-96.6797L49.1211-96.6797C39.4531-96.6797 33.1055-90.918 33.1055-82.1289L33.1055-79.1016L32.2754-79.1016L54.7363-56.5918L54.7363-57.8125C55.3223-58.5938 56.2988-59.0332 57.4219-59.0332C59.8145-59.0332 61.4258-57.4707 61.4258-55.1758L61.4258-49.9512L70.459-40.8691L70.8984-55.1758C70.9473-57.4707 72.6074-58.9844 74.9512-58.9844C77.3926-58.9844 78.9062-57.4707 78.8574-55.127L78.2227-33.1543ZM100.293 10.0586C101.904 11.6699 104.541 11.6699 106.104 10.0586C107.666 8.44727 107.715 5.85938 106.104 4.24805L14.502-87.4023C12.8906-89.0137 10.2539-89.0137 8.64258-87.4023C7.08008-85.8398 7.08008-83.1543 8.64258-81.5918ZM45.8984-76.7578L45.8984-81.7871C45.8984-83.9844 47.5098-85.4492 50-85.4492L64.7949-85.4492C67.2852-85.4492 68.8965-83.9844 68.8965-81.7871L68.8965-76.7578ZM34.4727 15.0879L80.3711 15.0879C85.2539 15.0879 88.7695 13.3789 90.6738 10.3516L90.7227 9.91211L75.9277-4.88281L75.8789-3.27148C75.5859-2.34375 74.6094-1.70898 73.4375-1.70898C70.9473-1.70898 69.3848-3.32031 69.4336-5.61523L69.6289-11.1816L61.4258-19.3848L61.4258-5.56641C61.4258-3.22266 59.8145-1.70898 57.4219-1.70898C55.0293-1.70898 53.418-3.22266 53.418-5.56641L53.418-27.3438L44.4824-36.3281L45.3613-5.66406C45.459-3.32031 43.8965-1.70898 41.4062-1.70898C39.1113-1.70898 37.5-3.27148 37.4512-5.56641L36.3281-44.4824L19.1406-61.6211L21.9727 3.4668C22.3145 11.1328 26.6113 15.0879 34.4727 15.0879Z"/>
  </g>
  <g id="Semibold-M" transform="matrix(1 0 0 1 1986.82 1126)">
   <path d="M91.9922-17.9688L94.1895-66.4551L100.488-66.4551C103.271-66.4551 105.42-68.5547 105.42-71.3379C105.42-74.0723 103.271-76.1719 100.488-76.1719L79.834-76.1719L79.834-82.2266C79.834-90.5273 73.9746-95.8496 64.9902-95.8496L47.8027-95.8496C38.8672-95.8496 33.0078-90.5273 33.0078-82.2266L33.0078-78.0762L31.8359-78.0762L53.7109-56.25L53.7109-57.9102C54.1992-58.8379 55.2246-59.3262 56.4453-59.3262C58.6426-59.3262 60.1074-57.9102 60.1074-55.8594L60.1074-49.8047L69.6289-40.2832L70.0684-55.8105C70.166-57.9102 71.6309-59.3262 73.7793-59.3262C75.9766-59.3262 77.3926-57.9102 77.3438-55.8105L76.709-33.252ZM98.584 8.98438C100.146 10.5469 102.686 10.5469 104.199 8.98438C105.713 7.37305 105.762 4.88281 104.199 3.32031L14.3066-86.6699C12.7441-88.1836 10.1562-88.2324 8.59375-86.6699C7.08008-85.1562 7.08008-82.5195 8.59375-81.0059ZM44.3848-76.1719L44.3848-81.8359C44.3848-84.1309 46.0449-85.6934 48.584-85.6934L64.2578-85.6934C66.7969-85.6934 68.5059-84.1309 68.5059-81.8359L68.5059-76.1719ZM33.4473 14.3555L79.4922 14.3555C84.2285 14.3555 87.6953 12.5 89.3555 9.375L89.4043 8.74023L75-5.66406L74.9023-3.4668C74.707-2.19727 73.6816-1.41602 72.2656-1.41602C70.0195-1.41602 68.5547-2.88086 68.6035-4.98047L68.7988-11.8164L60.1074-20.5078L60.1074-4.93164C60.1074-2.83203 58.6426-1.41602 56.4453-1.41602C54.248-1.41602 52.7832-2.83203 52.7832-4.93164L52.7832-27.832L43.3594-37.3047L44.2871-4.98047C44.3359-2.88086 42.9199-1.41602 40.625-1.41602C38.5254-1.41602 37.0605-2.83203 37.0117-4.93164L35.8887-44.7754L18.9941-61.6211L21.875 3.51562C22.168 10.5957 26.2207 14.3555 33.4473 14.3555Z"/>
  </g>
  <g id="Medium-M" transform="matrix(1 0 0 1 1690.84 1126)">
   <path d="M90.6738-18.2617L92.8223-66.9922L99.5605-66.9922C102.051-66.9922 103.955-68.9453 103.955-71.3867C103.955-73.8281 102.051-75.6836 99.5605-75.6836L78.4668-75.6836L78.4668-82.3242C78.4668-90.1855 72.9492-95.2637 64.502-95.2637L46.8262-95.2637C38.3789-95.2637 32.9102-90.1855 32.9102-82.3242L32.9102-77.3438L31.543-77.3438L52.8809-56.0059L52.8809-58.0078C53.3691-58.9844 54.4434-59.5703 55.7129-59.5703C57.7637-59.5703 59.1797-58.252 59.1797-56.3477L59.1797-49.707L68.9941-39.8926L69.4824-56.3477C69.5312-58.3008 70.8984-59.5703 72.8516-59.5703C74.9512-59.5703 76.2695-58.252 76.2207-56.2988L75.5859-33.3008ZM97.2656 8.10547C98.8281 9.66797 101.318 9.66797 102.783 8.10547C104.248 6.5918 104.297 4.15039 102.783 2.63672L14.1113-86.084C12.5977-87.5977 10.1074-87.5977 8.59375-86.084C7.08008-84.6191 7.08008-82.0801 8.59375-80.5664ZM43.2129-75.6836L43.2129-81.8848C43.2129-84.2773 44.9219-85.8887 47.5586-85.8887L63.8184-85.8887C66.4551-85.8887 68.1641-84.2285 68.1641-81.8848L68.1641-75.6836ZM32.6172 13.7695L78.8574 13.7695C83.4961 13.7695 86.8164 11.8652 88.3301 8.59375L88.3789 7.86133L74.2676-6.25L74.2188-3.61328C74.0723-2.14844 72.9492-1.17188 71.3867-1.17188C69.2871-1.17188 67.9688-2.53906 68.0176-4.44336L68.2129-12.3047L59.1797-21.3379L59.1797-4.44336C59.1797-2.49023 57.7637-1.2207 55.7129-1.2207C53.6621-1.2207 52.2949-2.49023 52.2949-4.44336L52.2949-28.2227L42.4805-38.0371L43.4082-4.49219C43.5059-2.53906 42.1387-1.2207 40.0391-1.2207C38.0859-1.2207 36.7188-2.49023 36.6699-4.44336L35.5469-44.9707L18.8965-61.5723L21.7773 3.56445C22.0215 10.2051 25.9277 13.7695 32.6172 13.7695Z"/>
  </g>
  <g id="Regular-M" transform="matrix(1 0 0 1 1395.08 1126)">
   <path d="M88.916-18.6523L91.0645-67.7246L98.3887-67.7246C100.391-67.7246 102.051-69.4336 102.051-71.4355C102.051-73.4375 100.391-75.0977 98.3887-75.0977L76.6113-75.0977L76.6113-82.4219C76.6113-89.7949 71.582-94.4824 63.8184-94.4824L45.5566-94.4824C37.793-94.4824 32.8125-89.7949 32.8125-82.4219L32.8125-76.3672L31.1523-76.3672L51.8555-55.6641L51.8555-58.1055C52.2949-59.2285 53.418-59.8633 54.7852-59.8633C56.6406-59.8633 57.9102-58.6914 57.9102-56.9824L57.9102-49.6094L68.1641-39.3555L68.6523-56.9824C68.7012-58.7402 69.9707-59.8633 71.6797-59.8633C73.5352-59.8633 74.8047-58.6914 74.7559-56.9824L74.0723-33.3984ZM95.6055 7.03125C97.0703 8.49609 99.4629 8.49609 100.928 7.03125C102.344 5.51758 102.393 3.17383 100.928 1.70898L13.916-85.3516C12.4512-86.8164 10.0098-86.8164 8.54492-85.3516C7.12891-83.9355 7.12891-81.4453 8.54492-80.0293ZM41.6992-75.0977L41.6992-81.9336C41.6992-84.4238 43.5059-86.1328 46.1426-86.1328L63.2812-86.1328C65.9668-86.1328 67.7734-84.4238 67.7734-81.9336L67.7734-75.0977ZM31.543 13.0371L77.9785 13.0371C82.4707 13.0371 85.7422 10.9863 87.0117 7.61719L87.0605 6.68945L73.3398-7.03125L73.2422-3.80859C73.2422-2.05078 71.9727-0.927734 70.2148-0.927734C68.3594-0.927734 67.1387-2.09961 67.1875-3.80859L67.4316-12.9395L57.9102-22.4609L57.9102-3.80859C57.9102-2.09961 56.6406-0.927734 54.7852-0.927734C52.9297-0.927734 51.6113-2.09961 51.6113-3.80859L51.6113-28.7109L41.3574-39.0137L42.334-3.80859C42.3828-2.09961 41.1621-0.927734 39.3066-0.927734C37.5-0.927734 36.3281-2.05078 36.2793-3.80859L35.1074-45.2637L18.75-61.5234L21.6309 3.61328C21.875 9.66797 25.5371 13.0371 31.543 13.0371Z"/>
  </g>
  <g id="Light-M" transform="matrix(1 0 0 1 1098.98 1126)">
   <path d="M87.5977-17.041L90.0879-68.8965L98.0469-68.8965C99.6094-68.8965 100.879-70.166 100.879-71.7285C100.879-73.3398 99.6094-74.6094 98.0469-74.6094L75.3906-74.6094L75.3906-82.2266C75.3906-89.0137 70.5566-93.5059 63.3789-93.5059L44.873-93.5059C37.6465-93.5059 32.8613-89.0137 32.8613-82.2266L32.8613-75.4395L29.1992-75.4395L51.8555-52.7344L51.8555-58.2031C52.1484-59.1797 53.0273-59.8145 54.1992-59.8145C55.6641-59.8145 56.6406-58.8379 56.6406-57.4707L56.6406-47.9492L67.9688-36.6211L68.6035-57.5195C68.6523-58.8867 69.6289-59.7656 70.9961-59.7656C72.4609-59.7656 73.4375-58.8379 73.4375-57.4707L72.7051-31.9336ZM39.7949-74.6094L39.7949-81.9336C39.7949-84.9121 41.9922-87.0117 45.2637-87.0117L62.9883-87.0117C66.2598-87.0117 68.5059-84.9121 68.5059-81.9336L68.5059-74.6094ZM95.8496 7.03125C96.9727 8.20312 98.877 8.20312 100 7.03125C101.123 5.85938 101.123 4.05273 100 2.92969L12.4512-84.6191C11.3281-85.7422 9.47266-85.791 8.30078-84.6191C7.17773-83.5449 7.17773-81.6406 8.30078-80.5176ZM31.4941 13.4277L76.8555 13.4277C81.4941 13.4277 85.1074 10.7422 86.0352 6.83594L86.1328 4.83398L72.0215-9.27734L71.8262-2.7832C71.8262-1.41602 70.8496-0.488281 69.3848-0.488281C67.9199-0.488281 66.9434-1.46484 66.9922-2.83203L67.334-13.9648L56.6406-24.6582L56.6406-2.83203C56.6406-1.46484 55.6641-0.537109 54.1992-0.537109C52.7344-0.537109 51.709-1.46484 51.709-2.83203L51.709-29.5898L40.1855-41.1133L41.3574-2.83203C41.3574-1.51367 40.4297-0.537109 38.916-0.537109C37.5-0.537109 36.5723-1.46484 36.5234-2.83203L35.2539-46.0449L18.6035-62.6953L21.7773 4.19922C22.0215 9.86328 25.8301 13.4277 31.4941 13.4277Z"/>
  </g>
  <g id="Thin-M" transform="matrix(1 0 0 1 803.029 1126)">
   <path d="M85.8887-14.8926L88.7695-70.3613L97.5586-70.3613C98.584-70.3613 99.3164-71.1914 99.3164-72.168C99.3164-73.1445 98.5352-73.9258 97.5586-73.9258L73.7793-73.9258L73.7793-81.9824C73.7793-87.9883 69.1895-92.1875 62.7441-92.1875L43.9453-92.1875C37.5-92.1875 33.0078-88.0371 33.0078-81.9824L33.0078-74.1699L26.6113-74.1699L51.8555-48.9258L51.8555-58.3496C51.9531-59.1309 52.5879-59.668 53.418-59.668C54.3457-59.668 55.0293-59.0332 55.0293-58.1543L55.0293-45.752L67.7246-33.0078L68.5547-58.2031C68.5547-59.0332 69.2383-59.6191 70.1172-59.6191C71.0449-59.6191 71.6797-59.0332 71.6797-58.1055L70.8008-29.9805ZM37.207-73.9258L37.207-81.8848C37.207-85.5957 40.0391-88.1836 44.0918-88.1836L62.6465-88.1836C66.6992-88.1836 69.5312-85.5469 69.5312-81.8848L69.5312-73.9258ZM96.1914 7.08008C96.9238 7.8125 98.0469 7.8125 98.7305 7.08008C99.5117 6.34766 99.4629 5.27344 98.7305 4.54102L10.498-83.6914C9.86328-84.3262 8.69141-84.4727 7.95898-83.6914C7.27539-83.0078 7.27539-81.8359 7.95898-81.1523ZM31.3965 13.916L75.3906 13.916C80.2246 13.916 84.2285 10.3516 84.7168 5.85938L84.9121 2.34375L70.2637-12.3047L69.9219-1.46484C69.9219-0.634766 69.2871 0 68.3105 0C67.334 0 66.748-0.683594 66.748-1.51367L67.1875-15.332L55.0293-27.5391L55.0293-1.5625C55.0293-0.683594 54.3457-0.0488281 53.418-0.0488281C52.4902-0.0488281 51.8066-0.683594 51.8066-1.5625L51.8066-30.7129L38.6719-43.8477L40.0391-1.5625C40.0391-0.732422 39.4043-0.0488281 38.4277-0.0488281C37.5-0.0488281 36.8652-0.683594 36.8652-1.51367L35.4492-47.1191L18.3594-64.1602L21.9238 4.98047C22.168 10.0586 26.2207 13.916 31.3965 13.916Z"/>
  </g>
  <g id="Ultralight-M" transform="matrix(1 0 0 1 506.733 1126)">
   <path d="M85.0098-13.8184L88.0859-71.1426L97.3633-71.1426C98.0469-71.1426 98.5352-71.6797 98.5352-72.3633C98.5352-73.0957 97.998-73.584 97.3633-73.584L72.9004-73.584L72.9004-81.8848C72.9004-87.4512 68.5059-91.5527 62.4512-91.5527L43.457-91.5527C37.4023-91.5527 33.0566-87.5 33.0566-81.8848L33.0566-73.5352L25.2441-73.5352L51.8555-46.9238L51.8555-58.4473C51.8555-59.1309 52.3438-59.6191 53.0273-59.6191C53.6621-59.6191 54.1504-59.1309 54.1504-58.4961L54.1504-44.6289L67.627-31.2012L68.5059-58.5449C68.5059-59.1309 69.043-59.5703 69.6289-59.5703C70.3125-59.5703 70.8008-59.1309 70.8008-58.3984L69.873-28.9551ZM35.9375-73.584L35.9375-81.8848C35.9375-85.9375 39.0137-88.7695 43.457-88.7695L62.4512-88.7695C66.8945-88.7695 70.0195-85.8887 70.0195-81.8848L70.0195-73.584ZM96.3867 7.12891C96.875 7.61719 97.6562 7.61719 98.0957 7.12891C98.6816 6.5918 98.584 5.85938 98.0957 5.37109L9.52148-83.2031C9.13086-83.6426 8.34961-83.7402 7.76367-83.2031C7.32422-82.7148 7.32422-81.9336 7.76367-81.4453ZM31.3477 14.1602L74.6094 14.1602C79.541 14.1602 83.7891 10.1562 84.0332 5.32227L84.2773 1.07422L69.3848-13.8184L68.9453-0.78125C68.9453-0.195312 68.5059 0.292969 67.7734 0.292969C67.041 0.292969 66.6016-0.244141 66.6016-0.878906L67.1387-16.0645L54.1504-29.0039L54.1504-0.927734C54.1504-0.244141 53.6621 0.244141 53.0273 0.244141C52.3438 0.244141 51.8555-0.244141 51.8555-0.927734L51.8555-31.2988L37.8906-45.2637L39.3555-0.927734C39.3555-0.341797 38.916 0.244141 38.1836 0.244141C37.4512 0.244141 37.0605-0.244141 37.0605-0.878906L35.5469-47.6562L18.2617-64.9414L22.0215 5.41992C22.2656 10.2051 26.4648 14.1602 31.3477 14.1602Z"/>
  </g>
  <g id="Black-S" transform="matrix(1 0 0 1 2886.43 696)">
   <path d="M77.1484-20.6055L78.8086-57.6172L82.1289-57.6172C85.5957-57.6172 88.0859-59.9121 88.0859-63.3789C88.0859-66.748 85.5957-69.043 82.1289-69.043L67.8223-69.043L67.8223-71.7773C67.8223-79.7363 61.8164-85.0098 52.832-85.0098L41.1133-85.0098C32.1289-85.0098 26.123-79.7363 26.123-71.7773L26.123-71.6309L45.0195-52.7344C45.5566-53.0762 46.2402-53.2227 46.9727-53.2227C49.2188-53.2227 50.7324-51.7578 50.7324-49.5117L50.7324-47.0215L56.9336-40.8203L57.2266-49.4629C57.2754-51.709 58.8379-53.2227 61.1816-53.2227C63.4766-53.2227 64.8926-51.709 64.8438-49.4141L64.3555-33.3984ZM82.0801 2.53906C83.4473 3.90625 85.6934 3.90625 87.0117 2.53906C88.3301 1.17188 88.3789-1.02539 87.0117-2.39258L11.8164-77.6367C10.4492-79.0039 8.20312-79.0039 6.83594-77.6367C5.51758-76.3184 5.51758-74.0234 6.83594-72.7051ZM39.1113-69.043L39.1113-71.582C39.1113-73.0957 40.2344-74.0723 42.041-74.0723L51.9043-74.0723C53.7109-74.0723 54.834-73.0957 54.834-71.582L54.834-69.043ZM29.1992 5.71289L64.7461 5.71289C68.8477 5.71289 71.8262 4.63867 73.7793 2.53906L61.4258-9.81445C60.9375-9.66797 60.4492-9.57031 59.9121-9.57031C57.5195-9.57031 56.0547-11.1328 56.1035-13.4277L56.1523-15.0879L50.7324-20.5078L50.7324-13.2812C50.7324-11.0352 49.2188-9.57031 46.9727-9.57031C44.7266-9.57031 43.2129-11.0352 43.2129-13.2812L43.2129-27.9785L37.207-34.0332L37.8418-13.4277C37.8906-11.1328 36.4258-9.57031 34.0332-9.57031C31.8359-9.57031 30.2734-11.084 30.2246-13.3301L29.3457-41.8945L15.2344-55.957L17.4805-5.0293C17.7734 2.14844 21.6797 5.71289 29.1992 5.71289Z"/>
  </g>
  <g id="Heavy-S" transform="matrix(1 0 0 1 2590.6 696)">
   <path d="M75.5371-21.1914L77.1484-58.2031L81.0059-58.2031C84.082-58.2031 86.3281-60.3027 86.3281-63.3789C86.3281-66.4062 84.082-68.5059 81.0059-68.5059L66.1133-68.5059L66.1133-71.875C66.1133-79.3945 60.5957-84.3262 52.2461-84.3262L39.9414-84.3262C31.543-84.3262 26.0254-79.3945 26.0254-71.875L26.0254-70.752L25.9277-70.752L43.9941-52.6855L43.9941-52.832C44.4824-53.3203 45.2637-53.5645 46.0938-53.5645C48.1934-53.5645 49.6094-52.1973 49.6094-50.0977L49.6094-47.0703L56.1523-40.5762L56.4453-50.0488C56.4941-52.1484 57.9102-53.5645 60.1074-53.5645C62.207-53.5645 63.5742-52.1484 63.5254-50.0488L63.0371-33.6426ZM80.3711 1.41602C81.7383 2.7832 83.9355 2.7832 85.2539 1.41602C86.5723 0.0976562 86.6211-2.09961 85.2539-3.4668L11.7676-76.9531C10.4004-78.3203 8.20312-78.3203 6.83594-76.9531C5.51758-75.6836 5.51758-73.3887 6.83594-72.0703ZM37.8418-68.5059L37.8418-71.6309C37.8418-73.1934 38.9648-74.2188 40.7715-74.2188L51.416-74.2188C53.2227-74.2188 54.3457-73.1934 54.3457-71.6309L54.3457-68.5059ZM28.1738 4.93164L64.0137 4.93164C67.9688 4.93164 70.8008 3.80859 72.5586 1.61133L60.6445-10.3516L60.6445-10.1074C60.2539-9.61914 59.6191-9.32617 58.8379-9.32617C56.6406-9.32617 55.2734-10.7422 55.3223-12.8906L55.3711-15.5762L49.6094-21.3867L49.6094-12.7441C49.6094-10.6934 48.1934-9.32617 46.0938-9.32617C43.9941-9.32617 42.5781-10.6934 42.5781-12.7441L42.5781-28.3691L36.2305-34.7656L36.8652-12.8906C36.9141-10.7422 35.5469-9.32617 33.3008-9.32617C31.25-9.32617 29.834-10.6934 29.7852-12.793L28.9062-42.0898L15.1367-55.8105L17.334-5.0293C17.627 1.61133 21.2402 4.93164 28.1738 4.93164Z"/>
  </g>
  <g id="Bold-S" transform="matrix(1 0 0 1 2294.91 696)">
   <path d="M73.7305-21.8262L75.3418-58.8867L79.6875-58.8867C82.3242-58.8867 84.2773-60.791 84.2773-63.4277C84.2773-65.9668 82.3242-67.8711 79.6875-67.8711L64.209-67.8711L64.209-72.0215C64.209-79.0527 59.2285-83.5449 51.5625-83.5449L38.5742-83.5449C30.9082-83.5449 25.8789-79.0527 25.8789-72.0215L25.8789-69.7754L25.7324-69.7754L42.8223-52.6855L42.8223-52.9297C43.3105-53.5645 44.1406-53.9062 45.0684-53.9062C47.0215-53.9062 48.3398-52.6367 48.3398-50.7812L48.3398-47.168L55.2246-40.2832L55.5176-50.7324C55.5664-52.6367 56.8848-53.9062 58.8379-53.9062C60.8398-53.9062 62.0605-52.6367 62.0117-50.7324L61.5723-33.9844ZM78.418 0.195312C79.7852 1.5625 81.9824 1.5625 83.252 0.195312C84.5703-1.12305 84.6191-3.32031 83.252-4.63867L11.7188-76.2207C10.4004-77.5879 8.1543-77.5879 6.83594-76.2207C5.51758-74.9512 5.51758-72.7051 6.83594-71.3867ZM36.377-67.8711L36.377-71.6797C36.377-73.291 37.5-74.3652 39.3066-74.3652L50.8301-74.3652C52.6367-74.3652 53.7598-73.291 53.7598-71.6797L53.7598-67.8711ZM27.002 4.05273L63.1836 4.05273C66.9922 4.05273 69.6777 2.88086 71.2402 0.634766L71.2402 0.537109L59.7656-10.9375L59.7656-10.4492C59.5215-9.61914 58.6914-9.0332 57.666-9.0332C55.6641-9.0332 54.3945-10.3516 54.3945-12.2559L54.541-16.1621L48.3398-22.3145L48.3398-12.1582C48.3398-10.3027 47.0215-9.0332 45.0684-9.0332C43.1152-9.0332 41.7969-10.3027 41.7969-12.1582L41.7969-28.8574L35.0586-35.5957L35.7422-12.2559C35.791-10.3516 34.5215-9.0332 32.5195-9.0332C30.6152-9.0332 29.2969-10.3027 29.248-12.207L28.418-42.2852L15.0391-55.6152L17.1875-5.07812C17.4316 1.02539 20.752 4.05273 27.002 4.05273Z"/>
  </g>
  <g id="Semibold-S" transform="matrix(1 0 0 1 1998.88 696)">
   <path d="M72.4609-22.2656L74.0723-59.3262L78.8086-59.3262C81.1523-59.3262 82.9102-61.084 82.9102-63.4277C82.9102-65.7227 81.1523-67.4805 78.8086-67.4805L62.8906-67.4805L62.8906-72.1191C62.8906-78.8086 58.252-83.0566 51.0742-83.0566L37.6465-83.0566C30.4688-83.0566 25.8301-78.8086 25.8301-72.1191L25.8301-69.0918L25.5859-69.0918L42.041-52.6367L42.041-52.9785C42.4805-53.7598 43.3594-54.1504 44.3848-54.1504C46.2402-54.1504 47.4609-52.9785 47.4609-51.2207L47.4609-47.2168L54.5898-40.0879L54.8828-51.2207C54.9316-52.9785 56.2012-54.1504 58.0078-54.1504C59.8633-54.1504 61.0352-52.9785 60.9863-51.2207L60.5469-34.1797ZM77.0996-0.634766C78.418 0.683594 80.6152 0.683594 81.8848-0.634766C83.2031-2.00195 83.252-4.15039 81.8848-5.46875L11.6699-75.7324C10.3516-77.0508 8.1543-77.0508 6.83594-75.7324C5.51758-74.4629 5.51758-72.2168 6.83594-70.9473ZM35.3516-67.4805L35.3516-71.7285C35.3516-73.3887 36.5234-74.5117 38.3301-74.5117L50.4395-74.5117C52.2461-74.5117 53.418-73.3887 53.418-71.7285L53.418-67.4805ZM26.1719 3.4668L62.6465 3.4668C66.3086 3.4668 68.8965 2.24609 70.3125-0.0488281L70.3125-0.195312L59.1797-11.3281L59.1797-10.6934C58.9844-9.57031 58.0566-8.83789 56.8359-8.83789C54.9805-8.83789 53.7598-10.0586 53.8086-11.8164L53.9062-16.5527L47.4609-22.998L47.4609-11.7676C47.4609-10.0586 46.2402-8.88672 44.3848-8.88672C42.5781-8.88672 41.3086-10.0586 41.3086-11.7676L41.3086-29.1504L34.3262-36.1816L35.0098-11.8164C35.0098-10.0586 33.8379-8.88672 31.9336-8.88672C30.1758-8.88672 28.9551-10.0098 28.9062-11.8164L28.0273-42.4316L14.9414-55.5176L17.0898-5.07812C17.2852 0.585938 20.4102 3.4668 26.1719 3.4668Z"/>
  </g>
  <g id="Medium-S" transform="matrix(1 0 0 1 1702.68 696)">
   <path d="M71.5332-22.6074L73.0957-59.668L78.125-59.668C80.2246-59.668 81.8848-61.3281 81.8848-63.4277C81.8848-65.4785 80.2246-67.1387 78.125-67.1387L61.9141-67.1387L61.9141-72.2168C61.9141-78.6133 57.5195-82.666 50.6836-82.666L36.9629-82.666C30.127-82.666 25.7324-78.6133 25.7324-72.2168L25.7324-68.6035L25.4883-68.6035L41.4062-52.6367L41.4062-53.0273C41.8457-53.8574 42.7734-54.3457 43.8477-54.3457C45.6055-54.3457 46.8262-53.2227 46.8262-51.5625L46.8262-47.2656L54.1016-39.9414L54.4434-51.5625C54.4922-53.2715 55.6641-54.3457 57.3242-54.3457C59.1309-54.3457 60.2539-53.2227 60.2051-51.5625L59.7656-34.3262ZM76.0742-1.31836C77.3926 0.0488281 79.5898 0.0488281 80.8594-1.31836C82.1289-2.63672 82.1777-4.73633 80.8594-6.10352L11.6211-75.3418C10.3027-76.6602 8.1543-76.6602 6.83594-75.3418C5.51758-74.0723 5.51758-71.8262 6.83594-70.5566ZM34.6191-67.1387L34.6191-71.7773C34.6191-73.4375 35.791-74.5605 37.5977-74.5605L50.0977-74.5605C51.9043-74.5605 53.125-73.4375 53.125-71.7773L53.125-67.1387ZM25.5371 2.97852L62.207 2.97852C65.7715 2.97852 68.2617 1.75781 69.5801-0.585938L69.5801-0.732422L58.6914-11.6211L58.6914-10.8398C58.5938-9.57031 57.6172-8.74023 56.2012-8.74023C54.4434-8.74023 53.2715-9.86328 53.3203-11.5234L53.4668-16.8457L46.8262-23.4863L46.8262-11.4746C46.8262-9.81445 45.6055-8.74023 43.8477-8.74023C42.1387-8.74023 40.918-9.81445 40.918-11.4746L40.918-29.3945L33.6914-36.6211L34.4238-11.5234C34.4727-9.86328 33.3008-8.74023 31.4941-8.74023C29.834-8.74023 28.6621-9.81445 28.6133-11.4746L27.7832-42.5781L14.8438-55.4199L16.9922-5.07812C17.1875 0.292969 20.166 2.97852 25.5371 2.97852Z"/>
  </g>
  <g id="Regular-S" transform="matrix(1 0 0 1 1406.66 696)">
   <path d="M70.2637-23.0469L71.8262-60.1562L77.2461-60.1562C79.0527-60.1562 80.5176-61.6211 80.5176-63.4277C80.5176-65.2344 79.0527-66.6992 77.2461-66.6992L60.5957-66.6992L60.5957-72.2656C60.5957-78.3691 56.5918-82.1289 50.2441-82.1289L36.0352-82.1289C29.6875-82.1289 25.6836-78.3691 25.6836-72.2656L25.6836-67.9199L25.3418-67.9199L40.625-52.6367L40.625-53.0762C41.0645-54.0527 41.9922-54.5898 43.1641-54.5898C44.8242-54.5898 45.9473-53.5156 45.9473-52.0508L45.9473-47.3145L53.5156-39.7461L53.8086-52.0508C53.8574-53.5645 54.9316-54.5898 56.4941-54.5898C58.1543-54.5898 59.2285-53.5156 59.1797-52.0508L58.7402-34.5215ZM74.7559-2.14844C76.0742-0.830078 78.2227-0.830078 79.4922-2.14844C80.7617-3.4668 80.8105-5.56641 79.4922-6.88477L11.6211-74.8535C10.3027-76.1719 8.1543-76.1719 6.83594-74.8535C5.56641-73.584 5.56641-71.3867 6.83594-70.1172ZM33.5938-66.6992L33.5938-71.8262C33.5938-73.5352 34.8145-74.707 36.5723-74.707L49.707-74.707C51.5137-74.707 52.7344-73.5352 52.7344-71.8262L52.7344-66.6992ZM24.7559 2.39258L61.6699 2.39258C65.0879 2.39258 67.4805 1.12305 68.6523-1.26953L68.6523-1.46484L58.1055-12.0117L58.1055-11.084C58.1055-9.52148 56.9824-8.54492 55.4199-8.54492C53.7598-8.54492 52.6855-9.57031 52.7344-11.084L52.8809-17.2363L45.9473-24.1699L45.9473-11.084C45.9473-9.57031 44.8242-8.54492 43.1641-8.54492C41.5527-8.54492 40.4297-9.57031 40.4297-11.084L40.4297-29.7363L32.959-37.207L33.6426-11.084C33.6914-9.57031 32.6172-8.54492 30.957-8.54492C29.3945-8.54492 28.3203-9.52148 28.2715-11.084L27.4414-42.7246L14.7949-55.3223L16.8945-5.07812C17.0898-0.0976562 19.8242 2.39258 24.7559 2.39258Z"/>
  </g>
  <g id="Light-S" transform="matrix(1 0 0 1 1110.48 696)">
   <path d="M69.1406-21.582L70.9473-61.1328L76.9531-61.1328C78.3691-61.1328 79.4922-62.3047 79.4922-63.7207C79.4922-65.1367 78.3203-66.2598 76.9531-66.2598L59.5215-66.2598L59.5215-72.1191C59.5215-77.6367 55.6641-81.25 49.8047-81.25L35.4004-81.25C29.541-81.25 25.7324-77.6855 25.7324-72.1191L25.7324-67.0898L23.6328-67.0898L40.625-50.0488L40.625-53.1738C40.918-54.0039 41.6992-54.4922 42.6758-54.4922C43.9453-54.4922 44.873-53.6621 44.873-52.4902L44.873-45.8496L53.3203-37.3535L53.7598-52.4902C53.8086-53.7109 54.6875-54.4922 55.9082-54.4922C57.1777-54.4922 58.0566-53.6621 58.0078-52.4414L57.4707-33.2031ZM31.8848-66.2598L31.8848-71.8262C31.8848-73.9746 33.4473-75.4883 35.791-75.4883L49.4629-75.4883C51.8066-75.4883 53.3691-73.9746 53.3691-71.8262L53.3691-66.2598ZM75-2.09961C76.0254-1.07422 77.6855-1.07422 78.6621-2.09961C79.6875-3.17383 79.6875-4.78516 78.6621-5.81055L10.3027-74.2188C9.32617-75.1953 7.61719-75.2441 6.5918-74.2188C5.61523-73.2422 5.61523-71.5332 6.5918-70.5078ZM24.707 2.73438L60.6445 2.73438C64.209 2.73438 66.8945 0.878906 67.7734-1.95312L67.8223-3.125L56.9336-14.0137L56.8359-10.2051C56.8359-8.98438 55.957-8.20312 54.6875-8.20312C53.3691-8.20312 52.5391-9.0332 52.5391-10.2051L52.7832-18.1641L44.873-26.123L44.873-10.2539C44.873-9.0332 43.9453-8.20312 42.6758-8.20312C41.3574-8.20312 40.4785-9.0332 40.4785-10.2539L40.4785-30.4688L31.9336-39.0137L32.7637-10.2539C32.8125-9.0332 31.9336-8.20312 30.6152-8.20312C29.3945-8.20312 28.5156-8.98438 28.5156-10.2051L27.5391-43.4082L14.6484-56.2988L16.9922-4.54102C17.1875 0.0488281 20.1172 2.73438 24.707 2.73438Z"/>
  </g>
  <g id="Thin-S" transform="matrix(1 0 0 1 814.454 696)">
   <path d="M67.627-19.7266L69.7754-62.5L76.5137-62.5C77.4414-62.5 78.125-63.1836 78.125-64.0625C78.125-64.9902 77.3926-65.6738 76.5137-65.6738L58.1055-65.6738L58.1055-71.9238C58.1055-76.7578 54.4922-80.127 49.2676-80.127L34.6191-80.127C29.3945-80.127 25.8301-76.8066 25.8301-71.9238L25.8301-65.9668L21.3379-65.9668L40.625-46.6797L40.625-53.3203C40.7227-54.0039 41.2598-54.3945 41.9922-54.3945C42.8223-54.3945 43.4082-53.8574 43.4082-53.0273L43.4082-43.8965L53.125-34.1797L53.7109-53.0762C53.7109-53.8574 54.3457-54.3945 55.0781-54.3945C55.9082-54.3945 56.4941-53.8574 56.4941-53.0273L55.8105-31.4941ZM29.6387-65.6738L29.6387-71.7773C29.6387-74.5605 31.7383-76.5137 34.7656-76.5137L49.1211-76.5137C52.1484-76.5137 54.2969-74.5117 54.2969-71.7773L54.2969-65.6738ZM75.293-2.09961C75.9277-1.41602 76.9531-1.41602 77.5879-2.09961C78.2715-2.73438 78.2227-3.75977 77.5879-4.39453L8.59375-73.3887C8.00781-73.9746 6.98242-74.0723 6.29883-73.3887C5.66406-72.7539 5.66406-71.6797 6.29883-71.0938ZM24.6094 3.17383L59.3262 3.17383C63.0859 3.17383 66.1621 0.537109 66.6016-2.83203L66.748-5.32227L55.3711-16.6992L55.127-9.0332C55.127-8.25195 54.5898-7.71484 53.7109-7.71484C52.8809-7.71484 52.3438-8.30078 52.3438-9.08203L52.6855-19.3848L43.4082-28.6621L43.4082-9.13086C43.4082-8.30078 42.8223-7.76367 41.9922-7.76367C41.1621-7.76367 40.5762-8.30078 40.5762-9.13086L40.5762-31.4941L30.5664-41.4551L31.5918-9.13086C31.5918-8.34961 31.0547-7.76367 30.2246-7.76367C29.3457-7.76367 28.8086-8.30078 28.8086-9.08203L27.7344-44.3359L14.4531-57.6172L17.1387-3.85742C17.334 0.195312 20.459 3.17383 24.6094 3.17383Z"/>
  </g>
  <g id="Ultralight-S" transform="matrix(1 0 0 1 518.11 696)">
   <path d="M66.8457-18.75L69.1895-63.1836L76.3184-63.1836C76.9531-63.1836 77.3926-63.6719 77.3926-64.2578C77.3926-64.8926 76.9043-65.332 76.3184-65.332L57.3242-65.332L57.3242-71.8262C57.3242-76.2695 53.8574-79.541 48.9746-79.541L34.1797-79.541C29.2969-79.541 25.8789-76.3184 25.8789-71.8262L25.8789-65.4297L20.166-65.4297L40.625-44.9219L40.625-53.418C40.625-53.9551 41.0645-54.3457 41.6504-54.3457C42.2363-54.3457 42.6758-53.9551 42.6758-53.3691L42.6758-42.9199L53.0273-32.5684L53.6621-53.418C53.6621-53.9551 54.1504-54.2969 54.6875-54.2969C55.2734-54.2969 55.7129-53.9551 55.7129-53.3203L54.9805-30.5664ZM28.4668-65.332L28.4668-71.7773C28.4668-74.9023 30.8105-77.0508 34.2285-77.0508L48.9746-77.0508C52.3438-77.0508 54.7363-74.8535 54.7363-71.7773L54.7363-65.332ZM75.4395-2.05078C75.8789-1.61133 76.6113-1.61133 77.0508-2.05078C77.4902-2.53906 77.4902-3.22266 77.0508-3.61328L7.71484-72.9492C7.32422-73.3398 6.64062-73.4375 6.15234-72.9492C5.71289-72.5098 5.71289-71.8262 6.15234-71.3867ZM24.5605 3.41797L58.6426 3.41797C62.5 3.41797 65.7715 0.390625 66.0156-3.32031L66.2109-6.44531L54.5898-18.0664L54.248-8.44727C54.248-7.91016 53.8574-7.4707 53.2227-7.4707C52.5879-7.4707 52.2461-7.95898 52.2461-8.49609L52.5879-20.0195L42.6758-29.9805L42.6758-8.54492C42.6758-7.95898 42.2363-7.51953 41.6504-7.51953C41.0645-7.51953 40.625-7.95898 40.625-8.54492L40.625-32.0312L29.8828-42.7246L31.0059-8.54492C31.0059-8.00781 30.6152-7.51953 29.9805-7.51953C29.3457-7.51953 28.9551-7.95898 28.9551-8.49609L27.832-44.8242L14.3555-58.3008L17.2363-3.51562C17.4316 0.341797 20.6543 3.41797 24.5605 3.41797Z"/>
  </g>
 </g>
</svg>
